<svg width="40" height="40" viewBox="20 20 40 40" fill="none" xmlns="http://www.w3.org/2000/svg">
  <path
    d="M20 34C20 26.268 26.268 20 34 20H46C53.732 20 60 26.268 60 34V46C60 53.732 53.732 60 46 60H34C26.268 60 20 53.732 20 46V34Z"
    fill="#155DFC"
    shape-rendering="crispEdges"
  />
  <path
    d="M48 41C48 46 44.5 48.5 40.34 49.95C40.1222 50.0238 39.8855 50.0202 39.67 49.94C35.5 48.5 32 46 32 41V34C32 33.7347 32.1054 33.4804 32.2929 33.2929C32.4804 33.1053 32.7348 33 33 33C35 33 37.5 31.8 39.24 30.28C39.4519 30.099 39.7214 29.9995 40 29.9995C40.2786 29.9995 40.5481 30.099 40.76 30.28C42.51 31.81 45 33 47 33C47.2652 33 47.5196 33.1053 47.7071 33.2929C47.8946 33.4804 48 33.7347 48 34V41Z"
    stroke="white"
    stroke-width="2"
    stroke-linecap="round"
    stroke-linejoin="round"
  />
</svg>
