<svg width="16" height="16" viewBox="0 0 16 16" fill="none" xmlns="http://www.w3.org/2000/svg">
  <path d="M10.6666 10.6668L12.6666 5.3335L14.6666 10.6668C14.0866 11.1002 13.3866 11.3335 12.6666 11.3335C11.9466 11.3335 11.2466 11.1002 10.6666 10.6668Z" stroke="currentColor" stroke-width="1.33333" stroke-linecap="round" stroke-linejoin="round"/>
  <path d="M1.33337 10.6668L3.33337 5.3335L5.33337 10.6668C4.75337 11.1002 4.05337 11.3335 3.33337 11.3335C2.61337 11.3335 1.91337 11.1002 1.33337 10.6668Z" stroke="currentColor" stroke-width="1.33333" stroke-linecap="round" stroke-linejoin="round"/>
  <path d="M4.66663 14H11.3333" stroke="currentColor" stroke-width="1.33333" stroke-linecap="round" stroke-linejoin="round"/>
  <path d="M8 2V14" stroke="currentColor" stroke-width="1.33333" stroke-linecap="round" stroke-linejoin="round"/>
  <path d="M2 4.66683H3.33333C4.66667 4.66683 6.66667 4.00016 8 3.3335C9.33333 4.00016 11.3333 4.66683 12.6667 4.66683H14" stroke="currentColor" stroke-width="1.33333" stroke-linecap="round" stroke-linejoin="round"/>
</svg>
