<svg width="16" height="16" viewBox="0 0 16 16" fill="none" xmlns="http://www.w3.org/2000/svg">
  <path d="M9.66667 2.66667H6.33333L4.66667 4.66667H2.66667C2.31304 4.66667 1.97391 4.80714 1.72386 5.05719C1.47381 5.30724 1.33333 5.64638 1.33333 6V12C1.33333 12.3536 1.47381 12.6928 1.72386 12.9428C1.97391 13.1929 2.31304 13.3333 2.66667 13.3333H13.3333C13.687 13.3333 14.0261 13.1929 14.2761 12.9428C14.5262 12.6928 14.6667 12.3536 14.6667 12V6C14.6667 5.64638 14.5262 5.30724 14.2761 5.05719C14.0261 4.80714 13.687 4.66667 13.3333 4.66667H11.3333L9.66667 2.66667Z" stroke="currentColor" stroke-width="1.33333" stroke-linecap="round" stroke-linejoin="round"/>
  <path d="M8 10.6667C9.10457 10.6667 10 9.77124 10 8.66667C10 7.5621 9.10457 6.66667 8 6.66667C6.89543 6.66667 6 7.5621 6 8.66667C6 9.77124 6.89543 10.6667 8 10.6667Z" stroke="currentColor" stroke-width="1.33333" stroke-linecap="round" stroke-linejoin="round"/>
</svg>
