<svg width="16" height="16" viewBox="0 0 16 16" fill="none" xmlns="http://www.w3.org/2000/svg">
  <path d="M8 5.3335C11.3137 5.3335 14 4.43807 14 3.3335C14 2.22893 11.3137 1.3335 8 1.3335C4.68629 1.3335 2 2.22893 2 3.3335C2 4.43807 4.68629 5.3335 8 5.3335Z" stroke="currentColor" stroke-width="1.33333" stroke-linecap="round" stroke-linejoin="round"/>
  <path d="M2 3.3335V12.6668C2 13.1973 2.63214 13.706 3.75736 14.081C4.88258 14.4561 6.4087 14.6668 8 14.6668C9.5913 14.6668 11.1174 14.4561 12.2426 14.081C13.3679 13.706 14 13.1973 14 12.6668V3.3335" stroke="currentColor" stroke-width="1.33333" stroke-linecap="round" stroke-linejoin="round"/>
  <path d="M2 8C2 8.53043 2.63214 9.03914 3.75736 9.41421C4.88258 9.78929 6.4087 10 8 10C9.5913 10 11.1174 9.78929 12.2426 9.41421C13.3679 9.03914 14 8.53043 14 8" stroke="currentColor" stroke-width="1.33333" stroke-linecap="round" stroke-linejoin="round"/>
</svg>
