<svg width="20" height="20" viewBox="0 0 20 20" fill="none" xmlns="http://www.w3.org/2000/svg">
  <path d="M1.71835 10.2898C1.6489 10.1027 1.6489 9.89691 1.71835 9.70981C2.39476 8.06969 3.54294 6.66735 5.01732 5.68056C6.4917 4.69378 8.22588 4.16699 10 4.16699C11.7741 4.16699 13.5083 4.69378 14.9827 5.68056C16.4571 6.66735 17.6053 8.06969 18.2817 9.70981C18.3511 9.89691 18.3511 10.1027 18.2817 10.2898C17.6053 11.9299 16.4571 13.3323 14.9827 14.3191C13.5083 15.3058 11.7741 15.8326 10 15.8326C8.22588 15.8326 6.4917 15.3058 5.01732 14.3191C3.54294 13.3323 2.39476 11.9299 1.71835 10.2898Z" stroke="currentColor" stroke-width="1.66667" stroke-linecap="round" stroke-linejoin="round"/>
  <path d="M10 12.5C11.3807 12.5 12.5 11.3807 12.5 10C12.5 8.61929 11.3807 7.5 10 7.5C8.61929 7.5 7.5 8.61929 7.5 10C7.5 11.3807 8.61929 12.5 10 12.5Z" stroke="currentColor" stroke-width="1.66667" stroke-linecap="round" stroke-linejoin="round"/>
  <path d="M3.5 3.5L16.5 16.5" stroke="currentColor" stroke-width="1.66667" stroke-linecap="round"/>
</svg>
