<svg width="14" height="14" viewBox="0 0 14 14" fill="none" xmlns="http://www.w3.org/2000/svg">
  <path d="M1.5085 10.1582C1.28969 10.3769 1.16673 10.6736 1.16667 10.983V12.25C1.16667 12.4047 1.22812 12.5531 1.33752 12.6625C1.44692 12.7719 1.59529 12.8333 1.75 12.8333H3.5C3.65471 12.8333 3.80308 12.7719 3.91248 12.6625C4.02188 12.5531 4.08333 12.4047 4.08333 12.25V11.6667C4.08333 11.512 4.14479 11.3636 4.25419 11.2542C4.36358 11.1448 4.51196 11.0833 4.66667 11.0833H5.25C5.40471 11.0833 5.55308 11.0219 5.66248 10.9125C5.77188 10.8031 5.83333 10.6547 5.83333 10.5V9.91667C5.83333 9.76196 5.89479 9.61358 6.00419 9.50419C6.11358 9.39479 6.26196 9.33333 6.41667 9.33333H6.517C6.82639 9.33327 7.12309 9.21031 7.34183 8.9915L7.81667 8.51667C8.6274 8.79908 9.50999 8.798 10.32 8.5136C11.1301 8.2292 11.8196 7.67832 12.2759 6.95107C12.7321 6.22382 12.9281 5.36327 12.8316 4.51018C12.7352 3.65709 12.3521 2.86198 11.7451 2.25492C11.138 1.64785 10.3429 1.26477 9.48982 1.16835C8.63673 1.07193 7.77617 1.26787 7.04893 1.72412C6.32168 2.18038 5.7708 2.86993 5.4864 3.67997C5.20199 4.49001 5.20092 5.3726 5.48333 6.18333L1.5085 10.1582Z" stroke="currentColor" stroke-width="1.16667" stroke-linecap="round" stroke-linejoin="round"/>
  <path d="M9.625 4.66667C9.78608 4.66667 9.91667 4.53608 9.91667 4.375C9.91667 4.21392 9.78608 4.08333 9.625 4.08333C9.46392 4.08333 9.33333 4.21392 9.33333 4.375C9.33333 4.53608 9.46392 4.66667 9.625 4.66667Z" fill="currentColor" stroke="currentColor" stroke-width="1.16667" stroke-linecap="round" stroke-linejoin="round"/>
</svg>
