<svg width="20" height="20" viewBox="0 0 20 20" fill="none" xmlns="http://www.w3.org/2000/svg">
  <path d="M3.33333 1.66667V18.3333L5 17.5L6.66667 18.3333L8.33333 17.5L10 18.3333L11.6667 17.5L13.3333 18.3333L15 17.5L16.6667 18.3333V1.66667L15 2.5L13.3333 1.66667L11.6667 2.5L10 1.66667L8.33333 2.5L6.66667 1.66667L5 2.5L3.33333 1.66667Z" stroke="currentColor" stroke-width="1.66667" stroke-linecap="round" stroke-linejoin="round"/>
  <path d="M13.3333 6.66667H8.33333C7.89131 6.66667 7.46738 6.84226 7.15482 7.15482C6.84226 7.46738 6.66667 7.89131 6.66667 8.33333C6.66667 8.77536 6.84226 9.19928 7.15482 9.51184C7.46738 9.82441 7.89131 10 8.33333 10H11.6667C12.1087 10 12.5326 10.1756 12.8452 10.4882C13.1577 10.8007 13.3333 11.2246 13.3333 11.6667C13.3333 12.1087 13.1577 12.5326 12.8452 12.8452C12.5326 13.1577 12.1087 13.3333 11.6667 13.3333H6.66667" stroke="currentColor" stroke-width="1.66667" stroke-linecap="round" stroke-linejoin="round"/>
  <path d="M10 14.5833V5.41667" stroke="currentColor" stroke-width="1.66667" stroke-linecap="round" stroke-linejoin="round"/>
</svg>
