<svg width="16" height="16" viewBox="0 0 16 16" fill="none" xmlns="http://www.w3.org/2000/svg">
  <path d="M1.33333 4.66667L4.27333 1.72667C4.39737 1.60189 4.54488 1.50289 4.70735 1.43538C4.86983 1.36788 5.04406 1.33319 5.22 1.33333H10.78C10.9559 1.33319 11.1302 1.36788 11.2926 1.43538C11.4551 1.50289 11.6026 1.60189 11.7267 1.72667L14.6667 4.66667" stroke="currentColor" stroke-width="1.33333" stroke-linecap="round" stroke-linejoin="round"/>
  <path d="M2.66667 8V13.3333C2.66667 13.687 2.80714 14.0261 3.05719 14.2761C3.30724 14.5262 3.64638 14.6667 4 14.6667H12C12.3536 14.6667 12.6928 14.5262 12.9428 14.2761C13.1929 14.0261 13.3333 13.687 13.3333 13.3333V8" stroke="currentColor" stroke-width="1.33333" stroke-linecap="round" stroke-linejoin="round"/>
  <path d="M10 14.6667V12C10 11.6464 9.85952 11.3072 9.60948 11.0572C9.35943 10.8071 9.02029 10.6667 8.66667 10.6667H7.33333C6.97971 10.6667 6.64057 10.8071 6.39052 11.0572C6.14048 11.3072 6 11.6464 6 12V14.6667" stroke="currentColor" stroke-width="1.33333" stroke-linecap="round" stroke-linejoin="round"/>
  <path d="M1.33333 4.66667H14.6667" stroke="currentColor" stroke-width="1.33333" stroke-linecap="round" stroke-linejoin="round"/>
  <path d="M14.6667 4.66667V6.66667C14.6667 7.02029 14.5262 7.35943 14.2761 7.60948C14.0261 7.85952 13.687 8 13.3333 8C12.9438 7.97856 12.5718 7.83116 12.2733 7.58C12.1938 7.52252 12.0981 7.49157 12 7.49157C11.9019 7.49157 11.8062 7.52252 11.7267 7.58C11.4282 7.83116 11.0562 7.97856 10.6667 8C10.2772 7.97856 9.90515 7.83116 9.60667 7.58C9.52712 7.52252 9.43148 7.49157 9.33333 7.49157C9.23519 7.49157 9.13955 7.52252 9.06 7.58C8.76151 7.83116 8.38951 7.97856 8 8C7.61049 7.97856 7.23849 7.83116 6.94 7.58C6.86045 7.52252 6.76481 7.49157 6.66667 7.49157C6.56852 7.49157 6.47288 7.52252 6.39333 7.58C6.09485 7.83116 5.72284 7.97856 5.33333 8C4.94382 7.97856 4.57182 7.83116 4.27333 7.58C4.19379 7.52252 4.09814 7.49157 4 7.49157C3.90186 7.49157 3.80621 7.52252 3.72667 7.58C3.42818 7.83116 3.05618 7.97856 2.66667 8C2.31304 8 1.97391 7.85952 1.72386 7.60948C1.47381 7.35943 1.33333 7.02029 1.33333 6.66667V4.66667" stroke="currentColor" stroke-width="1.33333" stroke-linecap="round" stroke-linejoin="round"/>
</svg>
